<mxfile host="app.diagrams.net" modified="2020-12-26T17:04:00.936Z" agent="5.0 (Windows NT 10.0; WOW64) AppleWebKit/537.36 (KHTML, like Gecko) Chrome/86.0.4240.193 Safari/537.36" etag="GrPxJ_C61cIazxK0sgXy" version="14.1.2" type="github">
  <diagram id="4lQPnNywYoLpMX-VMCsl" name="第 1 页">
    <mxGraphModel dx="757" dy="681" grid="1" gridSize="10" guides="1" tooltips="1" connect="1" arrows="1" fold="1" page="1" pageScale="1" pageWidth="2336" pageHeight="1654" math="0" shadow="0">
      <root>
        <mxCell id="0" />
        <mxCell id="1" parent="0" />
        <mxCell id="eroGygYk5R_KSIHYfafh-5" style="edgeStyle=orthogonalEdgeStyle;rounded=0;orthogonalLoop=1;jettySize=auto;html=1;entryX=0.5;entryY=0;entryDx=0;entryDy=0;" edge="1" parent="1" source="eroGygYk5R_KSIHYfafh-1" target="eroGygYk5R_KSIHYfafh-4">
          <mxGeometry relative="1" as="geometry" />
        </mxCell>
        <mxCell id="eroGygYk5R_KSIHYfafh-1" value="case ARGS" style="rounded=0;whiteSpace=wrap;html=1;" vertex="1" parent="1">
          <mxGeometry x="350" y="100" width="100" height="40" as="geometry" />
        </mxCell>
        <mxCell id="eroGygYk5R_KSIHYfafh-9" style="edgeStyle=orthogonalEdgeStyle;rounded=0;orthogonalLoop=1;jettySize=auto;html=1;entryX=0.5;entryY=0;entryDx=0;entryDy=0;" edge="1" parent="1" source="eroGygYk5R_KSIHYfafh-2" target="eroGygYk5R_KSIHYfafh-8">
          <mxGeometry relative="1" as="geometry" />
        </mxCell>
        <mxCell id="eroGygYk5R_KSIHYfafh-2" value="type1 = semantic_Analysis(T-&amp;gt;ptr[0],type,level,flag,command);" style="whiteSpace=wrap;html=1;" vertex="1" parent="1">
          <mxGeometry x="300" y="240" width="200" height="50" as="geometry" />
        </mxCell>
        <mxCell id="eroGygYk5R_KSIHYfafh-6" style="edgeStyle=orthogonalEdgeStyle;rounded=0;orthogonalLoop=1;jettySize=auto;html=1;entryX=0.5;entryY=0;entryDx=0;entryDy=0;" edge="1" parent="1" source="eroGygYk5R_KSIHYfafh-4" target="eroGygYk5R_KSIHYfafh-2">
          <mxGeometry relative="1" as="geometry" />
        </mxCell>
        <mxCell id="eroGygYk5R_KSIHYfafh-4" value="获得下一个参数的类型" style="whiteSpace=wrap;html=1;" vertex="1" parent="1">
          <mxGeometry x="330" y="170" width="140" height="40" as="geometry" />
        </mxCell>
        <mxCell id="eroGygYk5R_KSIHYfafh-13" style="edgeStyle=orthogonalEdgeStyle;rounded=0;orthogonalLoop=1;jettySize=auto;html=1;entryX=0.5;entryY=0;entryDx=0;entryDy=0;" edge="1" parent="1" source="eroGygYk5R_KSIHYfafh-8" target="eroGygYk5R_KSIHYfafh-11">
          <mxGeometry relative="1" as="geometry" />
        </mxCell>
        <mxCell id="eroGygYk5R_KSIHYfafh-16" style="edgeStyle=orthogonalEdgeStyle;rounded=0;orthogonalLoop=1;jettySize=auto;html=1;" edge="1" parent="1" source="eroGygYk5R_KSIHYfafh-8" target="eroGygYk5R_KSIHYfafh-15">
          <mxGeometry relative="1" as="geometry" />
        </mxCell>
        <mxCell id="eroGygYk5R_KSIHYfafh-8" value="type1 == type ?" style="rhombus;whiteSpace=wrap;html=1;" vertex="1" parent="1">
          <mxGeometry x="330" y="320" width="140" height="50" as="geometry" />
        </mxCell>
        <mxCell id="eroGygYk5R_KSIHYfafh-18" style="edgeStyle=orthogonalEdgeStyle;rounded=0;orthogonalLoop=1;jettySize=auto;html=1;" edge="1" parent="1" source="eroGygYk5R_KSIHYfafh-11" target="eroGygYk5R_KSIHYfafh-17">
          <mxGeometry relative="1" as="geometry" />
        </mxCell>
        <mxCell id="eroGygYk5R_KSIHYfafh-11" value="函数调用的参数类型不匹配" style="whiteSpace=wrap;html=1;" vertex="1" parent="1">
          <mxGeometry x="325" y="400" width="150" height="40" as="geometry" />
        </mxCell>
        <mxCell id="eroGygYk5R_KSIHYfafh-14" value="N" style="text;html=1;align=center;verticalAlign=middle;resizable=0;points=[];autosize=1;" vertex="1" parent="1">
          <mxGeometry x="370" y="370" width="20" height="20" as="geometry" />
        </mxCell>
        <mxCell id="eroGygYk5R_KSIHYfafh-19" style="edgeStyle=orthogonalEdgeStyle;rounded=0;orthogonalLoop=1;jettySize=auto;html=1;" edge="1" parent="1" source="eroGygYk5R_KSIHYfafh-15" target="eroGygYk5R_KSIHYfafh-17">
          <mxGeometry relative="1" as="geometry">
            <Array as="points">
              <mxPoint x="595" y="485" />
            </Array>
          </mxGeometry>
        </mxCell>
        <mxCell id="eroGygYk5R_KSIHYfafh-15" value="递归分析下一个参数&lt;br&gt;semantic_Analysis(T-&amp;gt;ptr[1],type,level,flag,command);" style="whiteSpace=wrap;html=1;" vertex="1" parent="1">
          <mxGeometry x="500" y="390" width="190" height="60" as="geometry" />
        </mxCell>
        <mxCell id="eroGygYk5R_KSIHYfafh-17" value="return 0;" style="whiteSpace=wrap;html=1;" vertex="1" parent="1">
          <mxGeometry x="365" y="470" width="70" height="30" as="geometry" />
        </mxCell>
        <mxCell id="eroGygYk5R_KSIHYfafh-20" value="Y" style="text;html=1;align=center;verticalAlign=middle;resizable=0;points=[];autosize=1;" vertex="1" parent="1">
          <mxGeometry x="475" y="320" width="20" height="20" as="geometry" />
        </mxCell>
      </root>
    </mxGraphModel>
  </diagram>
</mxfile>
